<svg xmlns="http://www.w3.org/2000/svg" xmlns:xlink="http://www.w3.org/1999/xlink" width="500" zoomAndPan="magnify" viewBox="0 0 375 374.999991" height="500" preserveAspectRatio="xMidYMid meet" version="1.0"><defs><clipPath id="a8010fc074"><path d="M 119.191406 42.199219 L 269.191406 42.199219 L 269.191406 192.199219 L 119.191406 192.199219 Z M 119.191406 42.199219 " clip-rule="nonzero"/></clipPath></defs><g clip-path="url(#a8010fc074)"><path fill="#5ce1e6" d="M 269.191406 117.199219 C 269.191406 118.425781 269.160156 119.652344 269.101562 120.878906 C 269.039062 122.105469 268.949219 123.328125 268.828125 124.550781 C 268.710938 125.769531 268.558594 126.988281 268.378906 128.203125 C 268.199219 129.417969 267.988281 130.625 267.75 131.828125 C 267.511719 133.035156 267.242188 134.230469 266.941406 135.421875 C 266.644531 136.613281 266.316406 137.792969 265.960938 138.96875 C 265.605469 140.144531 265.21875 141.308594 264.804688 142.464844 C 264.394531 143.621094 263.953125 144.765625 263.480469 145.898438 C 263.011719 147.03125 262.515625 148.15625 261.988281 149.265625 C 261.464844 150.375 260.914062 151.46875 260.335938 152.550781 C 259.757812 153.636719 259.152344 154.703125 258.519531 155.753906 C 257.890625 156.808594 257.234375 157.84375 256.550781 158.867188 C 255.867188 159.886719 255.164062 160.890625 254.429688 161.875 C 253.699219 162.859375 252.945312 163.828125 252.167969 164.777344 C 251.386719 165.726562 250.585938 166.65625 249.761719 167.566406 C 248.9375 168.472656 248.089844 169.363281 247.222656 170.230469 C 246.355469 171.097656 245.46875 171.945312 244.558594 172.769531 C 243.648438 173.59375 242.71875 174.394531 241.769531 175.171875 C 240.820312 175.953125 239.855469 176.707031 238.867188 177.4375 C 237.882812 178.167969 236.878906 178.875 235.859375 179.558594 C 234.835938 180.238281 233.800781 180.894531 232.75 181.527344 C 231.695312 182.160156 230.628906 182.761719 229.546875 183.339844 C 228.460938 183.921875 227.367188 184.472656 226.257812 184.996094 C 225.148438 185.523438 224.027344 186.019531 222.890625 186.488281 C 221.757812 186.957031 220.613281 187.398438 219.457031 187.8125 C 218.300781 188.226562 217.136719 188.613281 215.960938 188.96875 C 214.789062 189.324219 213.605469 189.652344 212.414062 189.949219 C 211.222656 190.25 210.027344 190.515625 208.824219 190.757812 C 207.617188 190.996094 206.410156 191.207031 205.195312 191.386719 C 203.980469 191.566406 202.761719 191.714844 201.542969 191.835938 C 200.320312 191.957031 199.097656 192.046875 197.871094 192.105469 C 196.644531 192.167969 195.417969 192.199219 194.191406 192.199219 C 192.964844 192.199219 191.738281 192.167969 190.511719 192.105469 C 189.285156 192.046875 188.0625 191.957031 186.839844 191.835938 C 185.617188 191.714844 184.398438 191.566406 183.1875 191.386719 C 181.972656 191.207031 180.761719 190.996094 179.558594 190.757812 C 178.355469 190.515625 177.15625 190.25 175.96875 189.949219 C 174.777344 189.652344 173.59375 189.324219 172.417969 188.96875 C 171.246094 188.613281 170.078125 188.226562 168.921875 187.8125 C 167.769531 187.398438 166.625 186.957031 165.488281 186.488281 C 164.355469 186.019531 163.234375 185.523438 162.125 184.996094 C 161.015625 184.472656 159.917969 183.921875 158.835938 183.339844 C 157.753906 182.761719 156.6875 182.160156 155.632812 181.527344 C 154.578125 180.894531 153.542969 180.238281 152.523438 179.558594 C 151.503906 178.875 150.5 178.167969 149.511719 177.4375 C 148.527344 176.707031 147.558594 175.953125 146.609375 175.171875 C 145.664062 174.394531 144.734375 173.59375 143.824219 172.769531 C 142.914062 171.945312 142.027344 171.097656 141.15625 170.230469 C 140.289062 169.363281 139.445312 168.472656 138.621094 167.566406 C 137.796875 166.65625 136.992188 165.726562 136.214844 164.777344 C 135.4375 163.828125 134.679688 162.859375 133.949219 161.875 C 133.21875 160.890625 132.511719 159.886719 131.832031 158.867188 C 131.148438 157.84375 130.492188 156.808594 129.859375 155.753906 C 129.230469 154.703125 128.625 153.636719 128.046875 152.550781 C 127.46875 151.46875 126.917969 150.375 126.390625 149.265625 C 125.867188 148.15625 125.371094 147.03125 124.898438 145.898438 C 124.429688 144.765625 123.988281 143.621094 123.574219 142.464844 C 123.160156 141.308594 122.777344 140.144531 122.421875 138.96875 C 122.0625 137.792969 121.738281 136.613281 121.4375 135.421875 C 121.140625 134.230469 120.871094 133.035156 120.632812 131.828125 C 120.390625 130.625 120.183594 129.417969 120.003906 128.203125 C 119.820312 126.988281 119.671875 125.769531 119.550781 124.550781 C 119.429688 123.328125 119.339844 122.105469 119.28125 120.878906 C 119.21875 119.652344 119.191406 118.425781 119.191406 117.199219 C 119.191406 115.96875 119.21875 114.742188 119.28125 113.515625 C 119.339844 112.292969 119.429688 111.066406 119.550781 109.847656 C 119.671875 108.625 119.820312 107.40625 120.003906 106.191406 C 120.183594 104.980469 120.390625 103.769531 120.632812 102.566406 C 120.871094 101.363281 121.140625 100.164062 121.4375 98.972656 C 121.738281 97.785156 122.0625 96.601562 122.421875 95.425781 C 122.777344 94.25 123.160156 93.085938 123.574219 91.929688 C 123.988281 90.773438 124.429688 89.628906 124.898438 88.496094 C 125.371094 87.363281 125.867188 86.242188 126.390625 85.132812 C 126.917969 84.019531 127.46875 82.925781 128.046875 81.84375 C 128.625 80.761719 129.230469 79.691406 129.859375 78.640625 C 130.492188 77.585938 131.148438 76.550781 131.832031 75.53125 C 132.511719 74.507812 133.21875 73.507812 133.949219 72.519531 C 134.679688 71.535156 135.4375 70.566406 136.214844 69.617188 C 136.992188 68.667969 137.796875 67.738281 138.621094 66.832031 C 139.445312 65.921875 140.289062 65.03125 141.15625 64.164062 C 142.027344 63.296875 142.914062 62.449219 143.824219 61.625 C 144.734375 60.800781 145.664062 60 146.609375 59.222656 C 147.558594 58.441406 148.527344 57.6875 149.511719 56.957031 C 150.5 56.226562 151.503906 55.519531 152.523438 54.835938 C 153.542969 54.15625 154.578125 53.5 155.632812 52.867188 C 156.6875 52.238281 157.753906 51.632812 158.835938 51.054688 C 159.917969 50.476562 161.015625 49.921875 162.125 49.398438 C 163.234375 48.875 164.355469 48.375 165.488281 47.90625 C 166.625 47.4375 167.769531 46.996094 168.921875 46.582031 C 170.078125 46.167969 171.246094 45.785156 172.417969 45.425781 C 173.59375 45.070312 174.777344 44.742188 175.96875 44.445312 C 177.15625 44.148438 178.355469 43.878906 179.558594 43.640625 C 180.761719 43.398438 181.972656 43.191406 183.1875 43.007812 C 184.398438 42.828125 185.617188 42.679688 186.839844 42.558594 C 188.0625 42.4375 189.285156 42.347656 190.511719 42.289062 C 191.738281 42.226562 192.964844 42.199219 194.191406 42.199219 C 195.417969 42.199219 196.644531 42.226562 197.871094 42.289062 C 199.097656 42.347656 200.320312 42.4375 201.542969 42.558594 C 202.761719 42.679688 203.980469 42.828125 205.195312 43.007812 C 206.410156 43.191406 207.617188 43.398438 208.824219 43.640625 C 210.027344 43.878906 211.222656 44.148438 212.414062 44.445312 C 213.605469 44.742188 214.789062 45.070312 215.960938 45.425781 C 217.136719 45.785156 218.300781 46.167969 219.457031 46.582031 C 220.613281 46.996094 221.757812 47.4375 222.890625 47.90625 C 224.027344 48.375 225.148438 48.875 226.257812 49.398438 C 227.367188 49.921875 228.460938 50.476562 229.546875 51.054688 C 230.628906 51.632812 231.695312 52.238281 232.75 52.867188 C 233.800781 53.5 234.835938 54.15625 235.859375 54.835938 C 236.878906 55.519531 237.882812 56.226562 238.867188 56.957031 C 239.855469 57.6875 240.820312 58.441406 241.769531 59.222656 C 242.71875 60 243.648438 60.800781 244.558594 61.625 C 245.46875 62.449219 246.355469 63.296875 247.222656 64.164062 C 248.089844 65.03125 248.9375 65.921875 249.761719 66.832031 C 250.585938 67.738281 251.386719 68.667969 252.167969 69.617188 C 252.945312 70.566406 253.699219 71.535156 254.429688 72.519531 C 255.164062 73.507812 255.867188 74.507812 256.550781 75.53125 C 257.234375 76.550781 257.890625 77.585938 258.519531 78.640625 C 259.152344 79.691406 259.757812 80.761719 260.335938 81.84375 C 260.914062 82.925781 261.464844 84.019531 261.988281 85.132812 C 262.515625 86.242188 263.011719 87.363281 263.480469 88.496094 C 263.953125 89.628906 264.394531 90.773438 264.804688 91.929688 C 265.21875 93.085938 265.605469 94.25 265.960938 95.425781 C 266.316406 96.601562 266.644531 97.785156 266.941406 98.972656 C 267.242188 100.164062 267.511719 101.363281 267.75 102.566406 C 267.988281 103.769531 268.199219 104.980469 268.378906 106.191406 C 268.558594 107.40625 268.710938 108.625 268.828125 109.847656 C 268.949219 111.066406 269.039062 112.292969 269.101562 113.515625 C 269.160156 114.742188 269.191406 115.96875 269.191406 117.199219 Z M 269.191406 117.199219 " fill-opacity="1" fill-rule="nonzero"/></g><path stroke-linecap="butt" transform="matrix(0.75, -0.000000000000000093, 0.000000000000000093, 0.75, 125.064927, 88.597391)" fill="none" stroke-linejoin="miter" d="M 0.00197168 2.000354 L 163.246774 2.000354 " stroke="#ffffff" stroke-width="4" stroke-opacity="1" stroke-miterlimit="4"/><path stroke-linecap="butt" transform="matrix(0, -0.75, 0.75, 0, 184.494909, 168.829033)" fill="none" stroke-linejoin="miter" d="M 0.00121055 2.00158 L 104.980384 2.00158 " stroke="#ffffff" stroke-width="4" stroke-opacity="1" stroke-miterlimit="4"/><path stroke-linecap="butt" transform="matrix(0.75, 0, 0, 0.75, 187.499992, 125.249699)" fill="none" stroke-linejoin="miter" d="M 0.0000104167 2.000401 L 80.000016 2.000401 " stroke="#ffffff" stroke-width="4" stroke-opacity="1" stroke-miterlimit="4"/><path stroke-linecap="butt" transform="matrix(0.000000001309, 0.75, -0.75, 0.000000001309, 247.494715, 90.041317)" fill="none" stroke-linejoin="miter" d="M 0.00220195 1.998162 L 48.950122 1.998162 " stroke="#ffffff" stroke-width="4" stroke-opacity="1" stroke-miterlimit="4"/><path stroke-linecap="butt" transform="matrix(0.64003, -0.390976, 0.390976, 0.64003, 185.217429, 125.467434)" fill="none" stroke-linejoin="miter" d="M 0.00167703 1.998838 L 93.747383 1.998792 " stroke="#ffffff" stroke-width="4" stroke-opacity="1" stroke-miterlimit="4"/><path stroke-linecap="butt" transform="matrix(0.614018, 0.430676, -0.430676, 0.614018, 188.360397, 125.52465)" fill="none" stroke-linejoin="miter" d="M 0.00197783 2.000601 L 97.717193 1.997994 " stroke="#ffffff" stroke-width="4" stroke-opacity="1" stroke-miterlimit="4"/></svg>